# xmcd
#
# Track frame offsets:
#	150
#	21127
#	36595
#	51145
#	63157
#	72875
#	86232
#	92477
#	102222
#	118215
#	129112
#	143767
#	161997
#	166545
#	173182
#	186595
#	200297
#	219320
#	231910
#	254615
#	267412
#	283785
#	295067
#	310030
#
# Disc length: 4197 seconds
#
# Revision: 0
# Processed by: cddbd v1.4PL0 Copyright (c) Steve Scherf et al.
#
# Submitted via: MusicManager v6.0.0.0
#
DISCID=63106318
DTITLE=Merle Haggard - Land of Many Churches
DYEAR=1900
DGENRE=country
TTITLE0=Introduction/We'll Understand It Better 
TTITLE1=Medley: Take My Hand, Precious Lord/Jesus
TTITLE2=Precious Memories 
TTITLE3=History of Big Creek Baptist Church  
TTITLE4=Turn Your Radio On 
TTITLE5=If We Never Meet Again 
TTITLE6=Closing Prayer/Just as I Am  
TTITLE7=Introduction and Opening Prayer 
TTITLE8=Amazing Grace  
TTITLE9=Where Could I Go But to the Lord 
TTITLE10=Medley: Old Time Religion/Pass Me Not... 
TTITLE11=The Old Rugged Cross  
TTITLE12=Closing Prayer  
TTITLE13=Introduction
TTITLE14=Life's Railway to Heaven 
TTITLE15=On the Jericho Road 
TTITLE16=Steal Away 
TTITLE17=I Saw the Light
TTITLE18=Introduction/Leaning on the Everlasting...  
TTITLE19=Guide Me, Lord  
TTITLE20=The Family Bible 
TTITLE21=I'll Be List'ning 
TTITLE22=Just a Closer Walk With Thee 
TTITLE23=Closing Prayer 
EXTD=
EXTT0=
EXTT1=
EXTT2=
EXTT3=
EXTT4=
EXTT5=
EXTT6=
EXTT7=
EXTT8=
EXTT9=
EXTT10=
EXTT11=
EXTT12=
EXTT13=
EXTT14=
EXTT15=
EXTT16=
EXTT17=
EXTT18=
EXTT19=
EXTT20=
EXTT21=
EXTT22=
EXTT23=
PLAYORDER=
